{"glyphs":{":":{"x_min":0,"x_max":289,"ha":289,"o":"m 340 479 l 294 350 q 286 329 266 314 q 246 300 226 300 l 90 300 q 54 300 54 333 q 54 341 58 350 l 104 479 q 112 500 132 514 q 152 529 172 529 l 308 529 q 343 529 343 496 q 343 488 340 479 z m 232 179 l 185 50 q 178 29 158 14 q 138 0 117 0 l -19 0 q -54 0 -54 33 q -54 41 -51 50 l -4 179 q 3 200 23 214 q 43 229 64 229 l 200 229 q 235 229 235 196 q 235 188 232 179 z"},"$":{"x_min":0,"x_max":600,"ha":600,"o":"m 645 479 l 617 400 q 609 379 590 364 q 570 350 549 350 l 469 350 l 458 321 l 538 321 q 573 321 573 288 q 573 280 570 271 l 490 50 q 483 29 463 14 q 443 0 422 0 l 342 0 l 324 -50 q 317 -71 297 -86 q 277 -100 256 -100 l 220 -100 q 185 -100 185 -67 q 185 -59 188 -50 l 206 0 l 202 0 l 184 -50 q 177 -71 157 -86 q 137 -100 116 -100 l 80 -100 q 45 -100 45 -67 q 45 -59 48 -50 l 66 0 l -14 0 q -49 0 -49 33 q -49 41 -46 50 l 1 179 q 9 200 28 214 q 48 229 69 229 l 149 229 l 157 250 l 77 250 q 42 250 42 283 q 42 291 45 300 l 109 479 q 117 500 137 514 q 157 529 178 529 l 258 529 l 276 579 q 283 600 303 614 q 323 629 344 629 l 380 629 q 415 629 415 596 q 415 588 412 579 l 394 529 l 398 529 l 416 579 q 423 600 443 614 q 463 629 484 629 l 520 629 q 555 629 555 596 q 555 588 552 579 l 534 529 l 614 529 q 649 529 649 496 q 649 488 645 479 z m 372 458 l 368 458 l 318 321 l 322 321 z m 297 250 l 293 250 l 228 71 l 232 71 z"},"?":{"x_min":0,"x_max":570,"ha":570,"o":"m 631 479 l 566 300 q 559 279 539 264 q 519 250 498 250 l 348 250 l 338 221 q 330 200 310 186 q 290 171 270 171 l 134 171 q 98 171 98 204 q 98 212 102 221 l 120 271 q 127 292 147 306 q 167 321 188 321 l 338 321 l 387 458 l 323 458 l 302 400 q 295 379 275 364 q 255 350 234 350 l 98 350 q 63 350 63 383 q 63 391 66 400 l 95 479 q 102 500 122 514 q 142 529 163 529 l 599 529 q 634 529 634 496 q 634 488 631 479 z m 286 79 l 276 50 q 268 29 248 14 q 228 0 208 0 l 72 0 q 37 0 37 33 q 37 41 40 50 l 50 79 q 58 100 78 114 q 98 129 118 129 l 254 129 q 289 129 289 96 q 289 88 286 79 z"},"<":{"x_min":0,"x_max":342,"ha":342,"o":"m 366 443 q 371 435 371 425 q 371 395 341 372 l 189 261 l 260 150 q 265 142 265 132 q 265 102 235 80 l 207 59 q 183 42 165 42 q 147 42 136 59 l 30 226 q 25 234 25 244 q 25 274 55 297 l 282 464 q 302 478 323 478 q 344 478 353 464 z"},"'":{"x_min":0,"x_max":266,"ha":266,"o":"m 293 679 l 246 550 q 240 533 220 522 q 199 510 178 500 l 6 400 q -1 396 -7 396 q -29 396 -29 431 q -29 441 -26 450 l 57 679 q 64 700 84 714 q 104 729 125 729 l 261 729 q 296 729 296 696 q 296 688 293 679 z"},"=":{"x_min":0,"x_max":404,"ha":404,"o":"m 404 359 l 394 330 q 386 309 366 294 q 346 280 326 280 l 90 280 q 55 280 55 313 q 55 321 58 330 l 68 359 q 76 380 96 394 q 116 409 136 409 l 372 409 q 407 409 407 376 q 407 368 404 359 z m 346 199 l 336 170 q 328 149 308 134 q 289 120 268 120 l 32 120 q -3 120 -3 153 q -3 161 0 170 l 10 199 q 18 220 38 234 q 58 249 79 249 l 315 249 q 350 249 350 216 q 350 208 346 199 z"},"a":{"x_min":0,"x_max":603,"ha":603,"o":"m 630 479 l 456 0 l -30 0 q -65 0 -65 33 q -65 41 -62 50 l 22 279 q 29 300 49 314 q 69 329 90 329 l 340 329 l 387 458 l 323 458 l 302 400 q 294 379 274 364 q 254 350 233 350 l 97 350 q 62 350 62 383 q 62 391 66 400 l 94 479 q 102 500 122 514 q 142 529 163 529 l 599 529 q 634 529 634 496 q 634 488 630 479 z m 314 258 l 250 258 l 182 71 l 246 71 z"},"L":{"x_min":0,"x_max":556,"ha":556,"o":"m 494 139 l 479 100 q 464 59 424 30 q 384 0 343 0 l 7 0 q -25 0 -44 18 q -63 37 -63 66 q -63 82 -57 100 l 81 479 q 89 500 109 514 q 129 529 150 529 l 236 529 q 268 529 287 510 q 306 492 306 463 q 306 447 299 429 l 172 80 l 236 80 l 239 89 q 255 130 294 160 q 334 189 376 189 l 462 189 q 497 189 497 156 q 497 148 494 139 z"},"3":{"x_min":0,"x_max":611,"ha":611,"o":"m 633 429 l 514 100 q 499 59 459 30 q 419 0 378 0 l 42 0 q 10 0 -10 18 q -29 37 -29 66 q -29 82 -22 100 l 10 189 q 17 210 37 224 q 57 239 78 239 l 164 239 q 196 239 215 220 q 234 202 234 173 q 234 157 228 139 l 207 80 l 271 80 l 324 229 l 210 229 l 236 300 l 350 300 l 404 449 l 340 449 l 319 390 q 304 349 264 320 q 224 290 182 290 l 96 290 q 61 290 61 323 q 61 331 65 340 l 97 429 q 112 470 152 500 q 191 529 233 529 l 569 529 q 601 529 620 510 q 639 492 639 463 q 639 447 633 429 z"},";":{"x_min":0,"x_max":302,"ha":302,"o":"m 366 479 l 319 350 q 311 329 292 314 q 272 300 251 300 l 115 300 q 80 300 80 333 q 80 341 83 350 l 130 479 q 137 500 157 514 q 177 529 198 529 l 334 529 q 369 529 369 496 q 369 488 366 479 z m 257 179 l 211 50 q 204 33 184 22 q 163 10 142 0 l -30 -100 q -36 -104 -42 -104 q -65 -104 -65 -69 q -65 -59 -62 -50 l 21 179 q 29 200 48 214 q 68 229 89 229 l 225 229 q 260 229 260 196 q 260 188 257 179 z"},"J":{"x_min":0,"x_max":585,"ha":585,"o":"m 628 479 l 490 100 q 475 59 435 30 q 395 0 354 0 l 18 0 q -14 0 -33 18 q -52 37 -52 66 q -52 82 -46 100 l 38 329 q 45 350 65 364 q 85 379 106 379 l 192 379 q 224 379 243 360 q 262 342 262 313 q 262 297 256 279 l 183 80 l 247 80 l 374 429 q 389 470 429 500 q 469 529 511 529 l 597 529 q 632 529 632 496 q 632 488 628 479 z"},"V":{"x_min":0,"x_max":571,"ha":571,"o":"m 614 479 l 476 100 q 461 59 421 30 q 381 0 340 0 l 4 0 q -28 0 -47 18 q -66 37 -66 66 q -66 82 -60 100 l 78 479 q 86 500 106 514 q 126 529 147 529 l 233 529 q 265 529 284 510 q 303 492 303 463 q 303 447 296 429 l 169 80 l 233 80 l 360 429 q 375 470 415 500 q 455 529 497 529 l 583 529 q 618 529 618 496 q 618 488 614 479 z"},"\"":{"x_min":0,"x_max":586,"ha":586,"o":"m 561 550 q 555 533 534 522 q 514 510 493 500 l 321 400 q 314 396 308 396 q 286 396 286 431 q 286 441 289 450 l 372 679 q 379 700 399 714 q 419 729 440 729 l 576 729 q 611 729 611 696 q 611 688 608 679 z m 271 550 q 265 533 244 522 q 224 510 203 500 l 31 400 q 24 396 18 396 q -4 396 -4 431 q -4 441 -1 450 l 82 679 q 89 700 109 714 q 129 729 150 729 l 286 729 q 321 729 321 696 q 321 688 318 679 z"},"7":{"x_min":0,"x_max":569,"ha":569,"o":"m 610 429 l 323 50 q 285 0 255 0 l 169 0 q 138 0 114 18 q 91 36 91 62 q 91 81 105 100 l 382 449 l 318 449 l 314 440 q 299 399 260 370 q 220 340 178 340 l 92 340 q 57 340 57 373 q 57 381 60 390 l 74 429 q 89 470 129 500 q 169 529 210 529 l 546 529 q 578 529 601 511 q 624 493 624 467 q 624 448 610 429 z"},"S":{"x_min":0,"x_max":577,"ha":577,"o":"m 620 479 l 592 400 q 584 379 564 364 q 544 350 523 350 l 387 350 q 352 350 352 383 q 352 391 356 400 l 377 458 l 313 458 l 263 321 l 513 321 q 548 321 548 288 q 548 280 545 271 l 464 50 q 457 29 437 14 q 417 0 396 0 l -40 0 q -75 0 -75 33 q -75 41 -72 50 l -25 179 q -17 200 3 214 q 23 229 43 229 l 179 229 q 214 229 214 196 q 214 188 211 179 l 172 71 l 236 71 l 301 250 l 51 250 q 16 250 16 283 q 16 291 19 300 l 84 479 q 92 500 112 514 q 132 529 153 529 l 589 529 q 624 529 624 496 q 624 488 620 479 z"},"}":{"x_min":0,"x_max":482,"ha":482,"o":"m 505 529 l 437 340 q 433 331 433 323 q 433 290 468 290 q 448 290 428 276 q 408 261 400 240 l 313 0 q 298 -41 258 -70 q 218 -100 176 -100 l -110 -100 l -81 -20 l 69 -20 l 164 240 q 172 261 192 276 q 212 290 232 290 q 197 290 197 323 q 197 331 201 340 l 277 549 l 127 549 l 156 629 l 442 629 q 474 629 493 610 q 512 592 512 563 q 512 547 505 529 z"},"Z":{"x_min":0,"x_max":583,"ha":583,"o":"m 620 479 l 555 300 q 548 279 528 264 q 508 250 487 250 l 237 250 l 172 71 l 236 71 l 275 179 q 283 200 303 214 q 323 229 343 229 l 479 229 q 514 229 514 196 q 514 188 511 179 l 464 50 q 457 29 437 14 q 417 0 396 0 l -40 0 q -75 0 -75 33 q -75 41 -72 50 l 9 271 q 16 292 36 306 q 56 321 77 321 l 327 321 l 377 458 l 313 458 l 292 400 q 284 379 264 364 q 244 350 223 350 l 87 350 q 52 350 52 383 q 52 391 56 400 l 84 479 q 92 500 112 514 q 132 529 153 529 l 589 529 q 624 529 624 496 q 624 488 620 479 z"},"x":{"x_min":0,"x_max":575,"ha":575,"o":"m 616 479 l 558 320 q 551 299 531 284 q 511 270 490 270 q 525 270 525 237 q 525 229 522 220 l 460 50 q 453 29 433 14 q 413 0 392 0 l 256 0 q 221 0 221 33 q 221 41 224 50 l 286 220 l 222 220 l 160 50 q 153 29 133 14 q 113 0 92 0 l -44 0 q -79 0 -79 33 q -79 41 -76 50 l -14 220 q -6 241 14 256 q 34 270 54 270 q 19 270 19 303 q 19 311 22 320 l 80 479 q 88 500 108 514 q 128 529 149 529 l 285 529 q 320 529 320 496 q 320 488 316 479 l 258 320 l 322 320 l 380 479 q 388 500 408 514 q 428 529 449 529 l 585 529 q 620 529 620 496 q 620 488 616 479 z"},")":{"x_min":0,"x_max":460,"ha":460,"o":"m 519 529 l 328 0 q 313 -41 273 -70 q 233 -100 191 -100 l -95 -100 l -66 -20 l 84 -20 l 290 549 l 140 549 l 169 629 l 455 629 q 487 629 506 610 q 525 592 525 563 q 525 547 519 529 z"},"&":{"x_min":0,"x_max":938,"ha":938,"o":"m 951 407 l 865 167 q 857 147 837 132 q 817 117 797 117 l 629 117 q 593 117 593 150 q 593 158 597 167 l 656 332 q 664 352 684 367 q 703 382 724 382 l 824 382 l 833 407 q 842 432 867 432 l 935 432 q 953 432 953 415 q 953 411 951 407 z m 810 342 l 778 342 l 711 157 l 743 157 z m 624 332 l 556 142 q 547 117 522 117 l 479 117 q 443 117 443 150 q 443 158 447 167 l 510 342 l 478 342 l 415 167 q 407 147 387 132 q 367 117 347 117 l 304 117 q 286 117 286 134 q 286 138 288 142 l 356 332 q 364 352 384 367 q 403 382 424 382 l 592 382 q 627 382 627 349 q 627 341 624 332 z m 333 357 l 247 117 l 4 117 q -14 117 -14 134 q -14 138 -12 142 l 29 257 q 38 282 63 282 l 188 282 l 211 346 l 179 346 l 169 317 q 160 292 135 292 l 67 292 q 49 292 49 309 q 49 313 51 317 l 65 357 q 74 382 99 382 l 317 382 q 335 382 335 365 q 335 361 333 357 z m 175 246 l 143 246 l 109 153 l 141 153 z"},"_":{"x_min":0,"x_max":324,"ha":324,"o":"m 335 -50 l 325 -79 q 317 -100 297 -114 q 277 -129 257 -129 l 21 -129 q -14 -129 -14 -96 q -14 -88 -11 -79 l -1 -50 q 7 -29 27 -14 q 47 0 68 0 l 304 0 q 339 0 339 -33 q 339 -41 335 -50 z"},"v":{"x_min":0,"x_max":571,"ha":571,"o":"m 614 479 l 476 100 q 461 59 421 30 q 381 0 340 0 l 4 0 q -28 0 -47 18 q -66 37 -66 66 q -66 82 -60 100 l 78 479 q 86 500 106 514 q 126 529 147 529 l 233 529 q 265 529 284 510 q 303 492 303 463 q 303 447 296 429 l 169 80 l 233 80 l 360 429 q 375 470 415 500 q 455 529 497 529 l 583 529 q 618 529 618 496 q 618 488 614 479 z"},"O":{"x_min":0,"x_max":584,"ha":584,"o":"m 609 429 l 489 100 q 474 59 434 30 q 394 0 353 0 l 17 0 q -15 0 -34 18 q -53 37 -53 66 q -53 82 -47 100 l 73 429 q 88 470 128 500 q 168 529 210 529 l 546 529 q 578 529 597 510 q 616 492 616 463 q 616 447 609 429 z m 380 449 l 316 449 l 182 80 l 246 80 z"},"(":{"x_min":0,"x_max":419,"ha":419,"o":"m 534 629 l 505 549 l 355 549 l 150 -20 l 300 -20 l 271 -100 l -15 -100 q -47 -100 -66 -82 q -86 -63 -86 -34 q -86 -18 -79 0 l 112 529 q 127 570 167 600 q 207 629 248 629 z"},"C":{"x_min":0,"x_max":570,"ha":570,"o":"m 599 429 l 567 340 q 559 319 539 304 q 519 290 499 290 l 413 290 q 381 290 362 308 q 343 327 343 356 q 343 372 349 390 l 370 449 l 306 449 l 172 80 l 236 80 l 258 139 q 273 180 313 210 q 353 239 394 239 l 480 239 q 515 239 515 206 q 515 198 512 189 l 479 100 q 464 59 424 30 q 384 0 343 0 l 7 0 q -25 0 -44 18 q -63 37 -63 66 q -63 82 -57 100 l 63 429 q 78 470 118 500 q 158 529 200 529 l 536 529 q 568 529 587 510 q 606 492 606 463 q 606 447 599 429 z"},"W":{"x_min":0,"x_max":878,"ha":878,"o":"m 921 479 l 783 100 q 768 59 728 30 q 688 0 647 0 l 11 0 q -21 0 -40 18 q -59 37 -59 66 q -59 82 -53 100 l 85 479 q 93 500 113 514 q 133 529 154 529 l 240 529 q 272 529 291 510 q 310 492 310 463 q 310 447 303 429 l 176 80 l 240 80 l 367 429 q 382 470 422 500 q 462 529 504 529 l 540 529 q 572 529 591 510 q 610 492 610 463 q 610 447 603 429 l 476 80 l 540 80 l 667 429 q 682 470 722 500 q 762 529 804 529 l 890 529 q 925 529 925 496 q 925 488 921 479 z"},"A":{"x_min":0,"x_max":588,"ha":588,"o":"m 611 429 l 473 50 q 466 29 446 14 q 426 0 405 0 l 319 0 q 287 0 268 18 q 249 37 249 66 q 249 82 255 100 l 299 220 l 235 220 l 191 100 q 176 59 136 30 q 96 0 55 0 l -31 0 q -66 0 -66 33 q -66 41 -63 50 l 75 429 q 90 470 130 500 q 170 529 212 529 l 548 529 q 580 529 599 510 q 618 492 618 463 q 618 447 611 429 z m 382 449 l 318 449 l 271 320 l 335 320 z"},"f":{"x_min":0,"x_max":357,"ha":357,"o":"m 604 729 l 574 649 l 374 649 l 331 529 l 445 529 l 419 458 l 305 458 l 156 50 q 149 29 129 14 q 109 0 88 0 l -48 0 q -83 0 -83 33 q -83 41 -80 50 l 131 629 q 146 671 186 700 q 226 729 268 729 z"},"Q":{"x_min":0,"x_max":589,"ha":589,"o":"m 612 429 l 438 -50 q 430 -71 410 -86 q 390 -100 370 -100 l 234 -100 q 199 -100 199 -67 q 199 -59 202 -50 l 220 0 l 20 0 q -12 0 -31 18 q -50 37 -50 66 q -50 82 -44 100 l 76 429 q 91 470 131 500 q 171 529 213 529 l 549 529 q 581 529 600 510 q 619 492 619 463 q 619 447 612 429 z m 383 449 l 319 449 l 185 80 l 249 80 z"},"w":{"x_min":0,"x_max":871,"ha":871,"o":"m 914 479 l 776 100 q 761 59 721 30 q 681 0 640 0 l 4 0 q -28 0 -47 18 q -66 37 -66 66 q -66 82 -60 100 l 78 479 q 86 500 106 514 q 126 529 147 529 l 233 529 q 265 529 284 510 q 303 492 303 463 q 303 447 296 429 l 169 80 l 233 80 l 360 429 q 375 470 415 500 q 455 529 497 529 l 533 529 q 565 529 584 510 q 603 492 603 463 q 603 447 596 429 l 469 80 l 533 80 l 660 429 q 675 470 715 500 q 755 529 797 529 l 883 529 q 918 529 918 496 q 918 488 914 479 z"},"-":{"x_min":0,"x_max":408,"ha":408,"o":"m 377 279 l 367 250 q 359 229 339 214 q 319 200 299 200 l 63 200 q 28 200 28 233 q 28 241 31 250 l 41 279 q 49 300 69 314 q 89 329 109 329 l 345 329 q 380 329 380 296 q 380 288 377 279 z"},"E":{"x_min":0,"x_max":565,"ha":565,"o":"m 593 429 l 561 340 q 553 319 533 304 q 513 290 493 290 l 407 290 q 375 290 356 308 q 337 327 337 356 q 337 372 343 390 l 364 449 l 300 449 l 246 300 l 360 300 l 334 229 l 220 229 l 166 80 l 230 80 l 252 139 q 267 180 307 210 q 347 239 388 239 l 474 239 q 509 239 509 206 q 509 198 506 189 l 473 100 q 458 59 418 30 q 378 0 337 0 l 1 0 q -31 0 -50 18 q -69 37 -69 66 q -69 82 -63 100 l 57 429 q 72 470 112 500 q 152 529 194 529 l 530 529 q 562 529 581 510 q 600 492 600 463 q 600 447 593 429 z"},"s":{"x_min":0,"x_max":577,"ha":577,"o":"m 620 479 l 592 400 q 584 379 564 364 q 544 350 523 350 l 387 350 q 352 350 352 383 q 352 391 356 400 l 377 458 l 313 458 l 263 321 l 513 321 q 548 321 548 288 q 548 280 545 271 l 464 50 q 457 29 437 14 q 417 0 396 0 l -40 0 q -75 0 -75 33 q -75 41 -72 50 l -25 179 q -17 200 3 214 q 23 229 43 229 l 179 229 q 214 229 214 196 q 214 188 211 179 l 172 71 l 236 71 l 301 250 l 51 250 q 16 250 16 283 q 16 291 19 300 l 84 479 q 92 500 112 514 q 132 529 153 529 l 589 529 q 624 529 624 496 q 624 488 620 479 z"},">":{"x_min":0,"x_max":342,"ha":342,"o":"m 314 297 q 319 289 319 278 q 319 248 288 226 l 61 59 q 37 42 19 42 q 1 42 -10 59 l -23 80 q -28 87 -28 98 q -28 128 3 150 l 154 261 l 83 372 q 78 380 78 391 q 78 421 108 443 l 136 464 q 156 478 177 478 q 198 478 207 464 z"},"l":{"x_min":0,"x_max":284,"ha":284,"o":"m 387 679 l 158 50 q 151 29 131 14 q 111 0 90 0 l -46 0 q -81 0 -81 33 q -81 41 -78 50 l 151 679 q 159 700 179 714 q 199 729 219 729 l 355 729 q 390 729 390 696 q 390 688 387 679 z"},"8":{"x_min":0,"x_max":604,"ha":604,"o":"m 648 479 l 590 320 q 583 299 563 284 q 543 270 522 270 q 557 270 557 237 q 557 229 554 220 l 492 50 q 485 29 465 14 q 445 0 424 0 l -12 0 q -47 0 -47 33 q -47 41 -44 50 l 18 220 q 25 241 45 256 q 65 270 86 270 q 51 270 51 303 q 51 311 54 320 l 112 479 q 119 500 139 514 q 159 529 180 529 l 616 529 q 651 529 651 496 q 651 488 648 479 z m 401 449 l 337 449 l 290 320 l 354 320 z m 318 220 l 254 220 l 203 80 l 267 80 z"},"\\":{"x_min":0,"x_max":486,"ha":486,"o":"m 383 50 q 385 29 372 14 q 359 0 338 0 l 202 0 q 182 0 166 14 q 149 29 147 50 l 103 479 q 101 500 114 514 q 127 529 148 529 l 284 529 q 305 529 321 514 q 337 500 339 479 z"},"e":{"x_min":0,"x_max":588,"ha":588,"o":"m 629 479 l 546 250 q 538 229 518 214 q 499 200 478 200 l 228 200 l 181 71 l 245 71 l 266 129 q 274 150 294 164 q 313 179 334 179 l 470 179 q 505 179 505 146 q 505 138 502 129 l 473 50 q 466 29 446 14 q 426 0 405 0 l -31 0 q -66 0 -66 33 q -66 41 -63 50 l 93 479 q 101 500 121 514 q 141 529 162 529 l 598 529 q 633 529 633 496 q 633 488 629 479 z m 386 458 l 322 458 l 254 271 l 318 271 z"},"b":{"x_min":0,"x_max":597,"ha":597,"o":"m 608 429 l 488 100 q 473 59 433 30 q 393 0 352 0 l 16 0 q -16 0 -35 18 q -54 37 -54 66 q -54 82 -48 100 l 127 579 q 134 600 154 614 q 174 629 195 629 l 331 629 q 366 629 366 596 q 366 588 363 579 l 345 529 l 545 529 q 577 529 596 510 q 615 492 615 463 q 615 447 608 429 z m 379 449 l 315 449 l 181 80 l 245 80 z"},"%":{"x_min":0,"x_max":642,"ha":642,"o":"m 615 479 l 437 265 l 571 265 q 606 265 606 231 q 606 223 603 215 l 543 50 q 536 29 516 14 q 496 0 475 0 l 307 0 q 272 0 272 33 q 272 41 275 50 l 288 84 l 259 50 q 242 29 216 14 q 189 0 168 0 l 32 0 q 9 0 9 18 q 9 32 23 50 l 201 265 l 71 265 q 36 265 36 298 q 36 306 39 315 l 99 479 q 106 500 126 514 q 146 529 167 529 l 335 529 q 370 529 370 496 q 370 488 367 479 l 357 453 l 379 479 q 396 500 422 514 q 449 529 470 529 l 606 529 q 629 529 629 511 q 629 497 615 479 z m 252 489 l 220 489 l 153 305 l 185 305 z m 489 225 l 457 225 l 390 40 l 422 40 z"},"m":{"x_min":0,"x_max":881,"ha":881,"o":"m 904 429 l 766 50 q 759 29 739 14 q 719 0 698 0 l 612 0 q 580 0 561 18 q 542 37 542 66 q 542 82 548 100 l 675 449 l 611 449 l 484 100 q 469 59 429 30 q 389 0 348 0 l 312 0 q 280 0 261 18 q 242 37 242 66 q 242 82 248 100 l 375 449 l 311 449 l 184 100 q 169 59 129 30 q 89 0 48 0 l -38 0 q -73 0 -73 33 q -73 41 -70 50 l 68 429 q 83 470 123 500 q 163 529 205 529 l 841 529 q 873 529 892 510 q 911 492 911 463 q 911 447 904 429 z"},"#":{"x_min":0,"x_max":689,"ha":689,"o":"m 715 409 l 704 380 q 697 359 677 344 q 657 330 636 330 l 589 199 q 624 199 624 166 q 624 158 621 149 l 610 120 q 603 99 583 84 q 563 70 542 70 l 535 50 q 528 29 508 14 q 488 0 467 0 l 331 0 q 296 0 296 33 q 296 41 299 50 l 306 70 l 242 70 l 235 50 q 228 29 208 14 q 188 0 167 0 l 31 0 q -4 0 -4 33 q -4 41 -1 50 l 6 70 q -29 70 -29 103 q -29 111 -26 120 l -15 149 q -8 170 12 184 q 32 199 53 199 l 100 330 q 65 330 65 363 q 65 371 68 380 l 79 409 q 86 430 106 444 q 126 459 147 459 l 154 479 q 161 500 181 514 q 201 529 222 529 l 358 529 q 393 529 393 496 q 393 488 390 479 l 383 459 l 447 459 l 454 479 q 461 500 481 514 q 501 529 522 529 l 658 529 q 693 529 693 496 q 693 488 690 479 l 683 459 q 718 459 718 426 q 718 418 715 409 z m 400 330 l 336 330 l 289 199 l 353 199 z"},",":{"x_min":0,"x_max":315,"ha":315,"o":"m 318 179 l 271 50 q 265 33 244 22 q 223 10 203 0 l 31 -100 q 24 -104 18 -104 q -4 -104 -4 -69 q -4 -59 -1 -50 l 82 179 q 89 200 109 214 q 129 229 150 229 l 286 229 q 321 229 321 196 q 321 188 318 179 z"},"n":{"x_min":0,"x_max":581,"ha":581,"o":"m 604 429 l 466 50 q 459 29 439 14 q 419 0 398 0 l 312 0 q 280 0 261 18 q 242 37 242 66 q 242 82 248 100 l 375 449 l 311 449 l 184 100 q 169 59 129 30 q 89 0 48 0 l -38 0 q -73 0 -73 33 q -73 41 -70 50 l 68 429 q 83 470 123 500 q 163 529 205 529 l 541 529 q 573 529 592 510 q 611 492 611 463 q 611 447 604 429 z"},"h":{"x_min":0,"x_max":587,"ha":587,"o":"m 600 470 l 447 50 q 439 29 419 14 q 399 0 379 0 l 243 0 q 208 0 208 33 q 208 41 211 50 l 345 420 l 281 420 l 147 50 q 139 29 119 14 q 99 0 79 0 l -57 0 q -92 0 -92 33 q -92 41 -89 50 l 140 679 q 147 700 167 714 q 187 729 208 729 l 344 729 q 379 729 379 696 q 379 688 376 679 l 318 520 l 568 520 q 603 520 603 487 q 603 479 600 470 z"},"z":{"x_min":0,"x_max":569,"ha":569,"o":"m 613 479 l 548 300 q 541 279 521 264 q 501 250 480 250 l 230 250 l 165 71 l 229 71 l 268 179 q 276 200 296 214 q 316 229 336 229 l 472 229 q 507 229 507 196 q 507 188 504 179 l 457 50 q 450 29 430 14 q 410 0 389 0 l -47 0 q -82 0 -82 33 q -82 41 -79 50 l 2 271 q 9 292 29 306 q 49 321 70 321 l 320 321 l 370 458 l 306 458 l 285 400 q 277 379 257 364 q 237 350 216 350 l 80 350 q 45 350 45 383 q 45 391 49 400 l 77 479 q 85 500 105 514 q 125 529 146 529 l 582 529 q 617 529 617 496 q 617 488 613 479 z"},"B":{"x_min":0,"x_max":575,"ha":575,"o":"m 616 479 l 566 340 q 558 319 538 304 q 518 290 498 290 q 533 290 533 257 q 533 249 529 240 l 460 50 q 453 29 433 14 q 413 0 392 0 l -44 0 q -79 0 -79 33 q -79 41 -76 50 l 80 479 q 88 500 108 514 q 128 529 149 529 l 585 529 q 620 529 620 496 q 620 488 616 479 z m 369 449 l 305 449 l 266 340 l 330 340 z m 293 240 l 229 240 l 171 80 l 235 80 z"},"K":{"x_min":0,"x_max":589,"ha":589,"o":"m 630 479 l 572 320 q 565 299 545 284 q 525 270 504 270 q 539 270 539 237 q 539 229 536 220 l 474 50 q 467 29 447 14 q 427 0 406 0 l 270 0 q 235 0 235 33 q 235 41 238 50 l 300 220 l 236 220 l 174 50 q 167 29 147 14 q 127 0 106 0 l -30 0 q -65 0 -65 33 q -65 41 -62 50 l 94 479 q 102 500 122 514 q 142 529 163 529 l 299 529 q 334 529 334 496 q 334 488 330 479 l 272 320 l 336 320 l 394 479 q 402 500 422 514 q 442 529 463 529 l 599 529 q 634 529 634 496 q 634 488 630 479 z"},"R":{"x_min":0,"x_max":560,"ha":560,"o":"m 601 429 l 587 390 q 579 369 559 354 q 539 340 519 340 l 433 340 q 401 340 382 358 q 363 377 363 406 q 363 422 369 440 l 372 449 l 308 449 l 181 100 q 166 59 126 30 q 86 0 45 0 l -41 0 q -76 0 -76 33 q -76 41 -73 50 l 65 429 q 80 470 120 500 q 160 529 202 529 l 538 529 q 570 529 589 510 q 608 492 608 463 q 608 447 601 429 z"},"T":{"x_min":0,"x_max":435,"ha":435,"o":"m 456 600 l 431 529 l 317 529 l 153 80 l 353 80 l 324 0 l -12 0 q -44 0 -63 18 q -82 37 -82 66 q -82 82 -76 100 l 135 679 q 143 700 163 714 q 183 729 204 729 l 340 729 q 375 729 375 697 q 375 688 371 679 l 342 600 z"},"P":{"x_min":0,"x_max":563,"ha":563,"o":"m 596 429 l 476 100 q 461 59 421 30 q 381 0 339 0 l 139 0 l 121 -50 q 114 -71 94 -86 q 74 -100 53 -100 l -83 -100 q -118 -100 -118 -67 q -118 -59 -115 -50 l 60 429 q 75 470 115 500 q 155 529 196 529 l 532 529 q 564 529 583 510 q 602 492 602 463 q 602 447 596 429 z m 367 449 l 303 449 l 169 80 l 233 80 z"},"|":{"x_min":0,"x_max":301,"ha":301,"o":"m 419 679 l 117 -150 q 110 -171 90 -186 q 70 -200 49 -200 l -87 -200 q -122 -200 -122 -167 q -122 -159 -119 -150 l 183 679 q 191 700 211 714 q 231 729 251 729 l 387 729 q 422 729 422 696 q 422 688 419 679 z"},"t":{"x_min":0,"x_max":441,"ha":441,"o":"m 456 600 l 431 529 l 317 529 l 153 80 l 353 80 l 324 0 l -12 0 q -44 0 -63 18 q -82 37 -82 66 q -82 82 -76 100 l 135 679 q 143 700 163 714 q 183 729 204 729 l 340 729 q 375 729 375 697 q 375 688 371 679 l 342 600 z"},"M":{"x_min":0,"x_max":881,"ha":881,"o":"m 904 429 l 766 50 q 759 29 739 14 q 719 0 698 0 l 612 0 q 580 0 561 18 q 542 37 542 66 q 542 82 548 100 l 675 449 l 611 449 l 484 100 q 469 59 429 30 q 389 0 348 0 l 312 0 q 280 0 261 18 q 242 37 242 66 q 242 82 248 100 l 375 449 l 311 449 l 184 100 q 169 59 129 30 q 89 0 48 0 l -38 0 q -73 0 -73 33 q -73 41 -70 50 l 68 429 q 83 470 123 500 q 163 529 205 529 l 841 529 q 873 529 892 510 q 911 492 911 463 q 911 447 904 429 z"},"g":{"x_min":0,"x_max":579,"ha":579,"o":"m 591 429 l 398 -100 q 383 -141 343 -170 q 303 -200 262 -200 l -74 -200 q -106 -200 -125 -182 q -144 -163 -144 -134 q -144 -118 -138 -100 l -123 -61 q -116 -40 -96 -26 q -76 -11 -55 -11 l 31 -11 q 63 -11 82 -30 q 101 -48 101 -77 q 101 -93 94 -111 l 91 -120 l 155 -120 l 199 0 l -1 0 q -33 0 -52 18 q -71 37 -71 66 q -71 82 -65 100 l 55 429 q 70 470 110 500 q 150 529 191 529 l 527 529 q 559 529 578 510 q 597 492 597 463 q 597 447 591 429 z m 362 449 l 298 449 l 164 80 l 228 80 z"},"j":{"x_min":0,"x_max":302,"ha":302,"o":"m 411 679 l 400 650 q 393 629 373 614 q 353 600 332 600 l 196 600 q 161 600 161 633 q 161 641 164 650 l 175 679 q 183 700 202 714 q 222 729 243 729 l 379 729 q 414 729 414 696 q 414 688 411 679 z m 338 479 l 127 -100 q 112 -141 72 -170 q 32 -200 -9 -200 l -285 -200 q -317 -200 -336 -182 q -355 -163 -355 -134 q -355 -118 -349 -100 l -334 -61 q -327 -40 -307 -26 q -287 -11 -266 -11 l -180 -11 q -148 -11 -129 -30 q -110 -48 -110 -77 q -110 -93 -117 -111 l -120 -120 l -116 -120 l 84 429 q 99 470 139 500 q 179 529 220 529 l 306 529 q 341 529 341 496 q 341 488 338 479 z"},"i":{"x_min":0,"x_max":296,"ha":296,"o":"m 401 679 l 391 650 q 383 629 363 614 q 343 600 322 600 l 186 600 q 151 600 151 633 q 151 641 155 650 l 165 679 q 173 700 193 714 q 213 729 233 729 l 369 729 q 404 729 404 696 q 404 688 401 679 z m 328 479 l 172 50 q 165 29 145 14 q 125 0 104 0 l -32 0 q -67 0 -67 33 q -67 41 -64 50 l 92 479 q 100 500 120 514 q 140 529 161 529 l 297 529 q 332 529 332 496 q 332 488 328 479 z"},"y":{"x_min":0,"x_max":567,"ha":567,"o":"m 617 479 l 406 -100 q 391 -141 351 -170 q 311 -200 270 -200 l -66 -200 q -98 -200 -117 -182 q -136 -163 -136 -134 q -136 -118 -130 -100 l -115 -61 q -108 -40 -88 -26 q -68 -11 -47 -11 l 39 -11 q 71 -11 90 -30 q 109 -48 109 -77 q 109 -93 102 -111 l 99 -120 l 163 -120 l 207 0 l 7 0 q -25 0 -44 18 q -63 37 -63 66 q -63 82 -57 100 l 81 479 q 89 500 109 514 q 129 529 149 529 l 235 529 q 267 529 286 510 q 305 492 305 463 q 305 447 299 429 l 172 80 l 236 80 l 363 429 q 378 470 418 500 q 458 529 499 529 l 585 529 q 620 529 620 496 q 620 488 617 479 z"},"@":{"x_min":0,"x_max":587,"ha":587,"o":"m 625 429 l 513 120 l 132 120 q 114 120 114 136 q 114 140 116 145 l 158 259 q 167 284 192 284 l 317 284 l 340 349 l 308 349 l 298 320 q 289 295 264 295 l 196 295 q 178 295 178 311 q 178 315 180 320 l 194 359 q 203 384 228 384 l 446 384 q 464 384 464 368 q 464 363 462 359 l 388 155 l 408 155 l 513 444 q 516 452 516 461 q 516 494 481 494 l 273 494 q 252 494 232 479 q 212 464 205 444 l 74 85 q 71 77 71 68 q 71 35 106 35 l 364 35 l 351 0 l 25 0 q -7 0 -26 18 q -45 37 -45 66 q -45 82 -38 100 l 81 429 q 97 470 136 500 q 176 529 218 529 l 562 529 q 594 529 613 510 q 632 492 632 463 q 632 447 625 429 z m 304 249 l 272 249 l 238 155 l 270 155 z"},".":{"x_min":0,"x_max":309,"ha":309,"o":"m 296 179 l 249 50 q 241 29 222 14 q 202 0 181 0 l 45 0 q 10 0 10 33 q 10 41 13 50 l 60 179 q 67 200 87 214 q 107 229 128 229 l 264 229 q 299 229 299 196 q 299 188 296 179 z"},"p":{"x_min":0,"x_max":570,"ha":570,"o":"m 596 429 l 476 100 q 461 59 421 30 q 381 0 340 0 l 140 0 l 85 -150 q 78 -171 58 -186 q 38 -200 17 -200 l -119 -200 q -154 -200 -154 -167 q -154 -159 -151 -150 l 60 429 q 75 470 115 500 q 155 529 196 529 l 532 529 q 564 529 583 510 q 602 492 602 463 q 602 447 596 429 z m 367 449 l 303 449 l 169 80 l 233 80 z"},"X":{"x_min":0,"x_max":582,"ha":582,"o":"m 623 479 l 565 320 q 558 299 538 284 q 518 270 497 270 q 532 270 532 237 q 532 229 529 220 l 467 50 q 460 29 440 14 q 420 0 399 0 l 263 0 q 228 0 228 33 q 228 41 231 50 l 293 220 l 229 220 l 167 50 q 160 29 140 14 q 120 0 99 0 l -37 0 q -72 0 -72 33 q -72 41 -69 50 l -7 220 q 1 241 21 256 q 41 270 61 270 q 26 270 26 303 q 26 311 29 320 l 87 479 q 95 500 115 514 q 135 529 156 529 l 292 529 q 327 529 327 496 q 327 488 323 479 l 265 320 l 329 320 l 387 479 q 395 500 415 514 q 435 529 456 529 l 592 529 q 627 529 627 496 q 627 488 623 479 z"},"*":{"x_min":0,"x_max":356,"ha":356,"o":"m 380 581 l 268 506 l 313 426 l 208 448 l 195 338 l 143 417 l 35 338 l 101 448 l -16 427 l 78 506 l 31 580 l 140 556 l 158 673 l 208 596 l 313 673 l 247 556 z"},"Y":{"x_min":0,"x_max":562,"ha":562,"o":"m 610 479 l 418 -50 q 410 -71 390 -86 q 370 -100 350 -100 l 214 -100 q 179 -100 179 -67 q 179 -59 182 -50 l 200 0 l 0 0 q -32 0 -51 18 q -70 37 -70 66 q -70 82 -64 100 l 74 479 q 82 500 102 514 q 122 529 143 529 l 229 529 q 261 529 280 510 q 299 492 299 463 q 299 447 292 429 l 165 80 l 229 80 l 356 429 q 371 470 411 500 q 451 529 493 529 l 579 529 q 614 529 614 496 q 614 488 610 479 z"},"c":{"x_min":0,"x_max":598,"ha":598,"o":"m 627 429 l 595 340 q 587 319 567 304 q 547 290 526 290 l 440 290 q 408 290 389 308 q 370 327 370 356 q 370 372 377 390 l 398 449 l 334 449 l 200 80 l 264 80 l 285 139 q 300 180 340 210 q 380 239 422 239 l 508 239 q 543 239 543 206 q 543 198 540 189 l 507 100 q 492 59 452 30 q 412 0 371 0 l 35 0 q 3 0 -16 18 q -35 37 -35 66 q -35 82 -29 100 l 91 429 q 106 470 146 500 q 186 529 227 529 l 563 529 q 595 529 614 510 q 633 492 633 463 q 633 447 627 429 z"},"!":{"x_min":0,"x_max":297,"ha":297,"o":"m 251 220 q 243 199 223 184 q 203 170 183 170 l 47 170 q 11 170 11 203 q 11 211 15 220 l 108 479 q 116 500 136 514 q 156 529 176 529 l 312 529 q 347 529 347 496 q 347 488 344 479 z m 189 50 q 182 29 162 14 q 142 0 121 0 l -15 0 q -50 0 -50 33 q -50 41 -47 50 l -36 79 q -29 100 -9 114 q 11 129 32 129 l 168 129 q 203 129 203 96 q 203 88 200 79 z"},"/":{"x_min":0,"x_max":489,"ha":489,"o":"m 540 479 l 185 50 q 168 29 141 14 q 114 0 94 0 l -42 0 q -66 0 -66 18 q -66 32 -51 50 l 304 479 q 321 500 348 514 q 375 529 395 529 l 531 529 q 555 529 555 511 q 555 497 540 479 z"},"[":{"x_min":0,"x_max":432,"ha":432,"o":"m 542 629 l 513 549 l 363 549 l 155 -20 l 305 -20 l 276 -100 l -110 -100 l 156 629 z"},"6":{"x_min":0,"x_max":605,"ha":605,"o":"m 648 479 l 619 400 q 612 379 592 364 q 572 350 551 350 l 415 350 q 380 350 380 383 q 380 391 383 400 l 404 458 l 340 458 l 294 329 l 544 329 q 579 329 579 296 q 579 288 576 279 l 493 50 q 485 29 465 14 q 445 0 425 0 l -11 0 q -46 0 -46 33 q -46 41 -43 50 l 112 479 q 119 500 139 514 q 159 529 180 529 l 616 529 q 651 529 651 496 q 651 488 648 479 z m 332 258 l 268 258 l 200 71 l 264 71 z"},"r":{"x_min":0,"x_max":547,"ha":547,"o":"m 591 429 l 577 390 q 569 369 549 354 q 529 340 509 340 l 423 340 q 391 340 372 358 q 353 377 353 406 q 353 422 359 440 l 362 449 l 298 449 l 171 100 q 156 59 116 30 q 76 0 35 0 l -51 0 q -86 0 -86 33 q -86 41 -83 50 l 55 429 q 70 470 110 500 q 150 529 192 529 l 528 529 q 560 529 579 510 q 598 492 598 463 q 598 447 591 429 z"},"2":{"x_min":0,"x_max":593,"ha":593,"o":"m 642 479 l 577 300 q 570 279 550 264 q 530 250 509 250 l 259 250 l 195 71 l 259 71 l 298 179 q 305 200 325 214 q 345 229 366 229 l 502 229 q 537 229 537 196 q 537 188 534 179 l 487 50 q 479 29 460 14 q 440 0 419 0 l -17 0 q -52 0 -52 33 q -52 41 -49 50 l 31 271 q 38 292 58 306 q 78 321 99 321 l 349 321 l 398 458 l 334 458 l 313 400 q 306 379 286 364 q 266 350 245 350 l 109 350 q 74 350 74 383 q 74 391 77 400 l 106 479 q 113 500 133 514 q 153 529 174 529 l 610 529 q 645 529 645 496 q 645 488 642 479 z"},"{":{"x_min":0,"x_max":475,"ha":475,"o":"m 588 629 l 559 549 l 409 549 l 333 340 q 325 319 305 304 q 285 290 265 290 q 300 290 300 257 q 300 249 297 240 l 202 -20 l 352 -20 l 323 -100 l 37 -100 q 5 -100 -14 -82 q -33 -63 -33 -34 q -33 -18 -27 0 l 61 240 q 64 249 64 257 q 64 290 29 290 q 49 290 69 304 q 89 319 97 340 l 166 529 q 181 570 221 600 q 261 629 302 629 z"},"9":{"x_min":0,"x_max":603,"ha":603,"o":"m 647 479 l 492 50 q 485 29 465 14 q 445 0 424 0 l -12 0 q -47 0 -47 33 q -47 41 -44 50 l -15 129 q -8 150 12 164 q 32 179 53 179 l 189 179 q 224 179 224 146 q 224 138 221 129 l 200 71 l 264 71 l 310 200 l 60 200 q 25 200 25 233 q 25 241 28 250 l 111 479 q 119 500 139 514 q 159 529 179 529 l 615 529 q 650 529 650 496 q 650 488 647 479 z m 404 458 l 340 458 l 272 271 l 336 271 z"}," ":{"x_min":0,"x_max":400,"ha":400,"o":""},"I":{"x_min":0,"x_max":283,"ha":283,"o":"m 323 479 l 167 50 q 160 29 140 14 q 120 0 99 0 l -37 0 q -72 0 -72 33 q -72 41 -69 50 l 87 479 q 95 500 115 514 q 135 529 156 529 l 292 529 q 327 529 327 496 q 327 488 323 479 z"},"H":{"x_min":0,"x_max":590,"ha":590,"o":"m 630 479 l 474 50 q 467 29 447 14 q 427 0 406 0 l 270 0 q 235 0 235 33 q 235 41 238 50 l 300 220 l 236 220 l 174 50 q 167 29 147 14 q 127 0 106 0 l -30 0 q -65 0 -65 33 q -65 41 -62 50 l 94 479 q 102 500 122 514 q 142 529 163 529 l 299 529 q 334 529 334 496 q 334 488 330 479 l 272 320 l 336 320 l 394 479 q 402 500 422 514 q 442 529 463 529 l 599 529 q 634 529 634 496 q 634 488 630 479 z"},"4":{"x_min":0,"x_max":592,"ha":592,"o":"m 641 479 l 486 50 q 479 29 459 14 q 439 0 418 0 l 282 0 q 247 0 247 33 q 247 41 250 50 l 268 100 l 68 100 q 36 100 17 118 q -2 137 -2 166 q -2 182 5 200 l 105 479 q 113 500 133 514 q 153 529 174 529 l 260 529 q 292 529 311 510 q 330 492 330 463 q 330 447 323 429 l 233 180 l 297 180 l 387 429 q 402 470 442 500 q 482 529 524 529 l 610 529 q 645 529 645 496 q 645 488 641 479 z"},"~":{"x_min":0,"x_max":583,"ha":583,"o":"m 42 272 l 42 372 q 94 431 178 431 q 208 431 240 422 q 272 414 332 388 q 365 374 382 370 q 399 365 416 365 q 448 365 482 384 q 516 403 542 432 l 542 329 q 511 299 479 286 q 447 273 407 273 q 377 273 350 280 q 324 287 266 312 q 208 338 170 338 q 139 338 111 325 q 83 312 42 272 z"},"D":{"x_min":0,"x_max":577,"ha":577,"o":"m 602 429 l 482 100 q 467 59 427 30 q 387 0 346 0 l -90 0 l 103 529 l 539 529 q 571 529 590 510 q 609 492 609 463 q 609 447 602 429 z m 373 449 l 309 449 l 175 80 l 239 80 z"},"^":{"x_min":0,"x_max":434,"ha":434,"o":"m 407 660 q 412 652 412 642 q 412 612 381 589 l 353 569 q 333 554 312 554 q 292 554 282 569 l 212 680 l 60 569 q 40 554 20 554 q -1 554 -10 569 l -23 589 q -30 600 -30 611 q -30 636 2 660 l 230 827 q 250 841 271 841 q 291 841 301 827 z"},"0":{"x_min":0,"x_max":611,"ha":611,"o":"m 633 429 l 514 100 q 499 59 459 30 q 419 0 378 0 l 42 0 q 10 0 -10 18 q -29 37 -29 66 q -29 82 -22 100 l 97 429 q 112 470 152 500 q 191 529 233 529 l 569 529 q 601 529 620 510 q 639 492 639 463 q 639 447 633 429 z m 404 449 l 340 449 l 207 80 l 271 80 z"},"F":{"x_min":0,"x_max":554,"ha":554,"o":"m 598 429 l 566 340 q 558 319 538 304 q 518 290 498 290 l 412 290 q 380 290 361 308 q 342 327 342 356 q 342 372 348 390 l 369 449 l 305 449 l 251 300 l 365 300 l 339 229 l 225 229 l 178 100 q 163 59 123 30 q 83 0 42 0 l 6 0 q -26 0 -45 18 q -64 37 -64 66 q -64 82 -58 100 l 62 429 q 77 470 117 500 q 157 529 199 529 l 535 529 q 567 529 586 510 q 605 492 605 463 q 605 447 598 429 z"},"`":{"x_min":0,"x_max":402,"ha":402,"o":"m 330 450 q 332 432 322 414 q 311 396 297 396 q 291 396 285 400 l 139 500 q 121 510 104 522 q 86 533 84 550 l 71 679 q 69 700 82 714 q 95 729 116 729 l 252 729 q 272 729 288 714 q 305 700 307 679 z"},"k":{"x_min":0,"x_max":580,"ha":580,"o":"m 617 479 l 596 420 q 588 399 568 384 q 548 370 528 370 q 563 370 563 337 q 563 329 559 320 l 461 50 q 454 29 434 14 q 414 0 393 0 l 257 0 q 222 0 222 33 q 222 41 225 50 l 323 320 l 259 320 l 161 50 q 154 29 134 14 q 114 0 93 0 l -43 0 q -78 0 -78 33 q -78 41 -75 50 l 154 679 q 162 700 182 714 q 202 729 222 729 l 358 729 q 393 729 393 696 q 393 688 390 679 l 296 420 l 360 420 l 381 479 q 389 500 409 514 q 429 529 450 529 l 586 529 q 621 529 621 496 q 621 488 617 479 z"},"u":{"x_min":0,"x_max":582,"ha":582,"o":"m 623 479 l 449 0 l 13 0 q -19 0 -38 18 q -57 37 -57 66 q -57 82 -51 100 l 87 479 q 95 500 115 514 q 135 529 156 529 l 242 529 q 274 529 293 510 q 312 492 312 463 q 312 447 305 429 l 178 80 l 242 80 l 369 429 q 384 470 424 500 q 464 529 506 529 l 592 529 q 627 529 627 496 q 627 488 623 479 z"},"]":{"x_min":0,"x_max":452,"ha":452,"o":"m 552 629 l 286 -100 l -100 -100 l -71 -20 l 79 -20 l 287 549 l 137 549 l 166 629 z"},"U":{"x_min":0,"x_max":575,"ha":575,"o":"m 616 479 l 442 0 l 6 0 q -26 0 -45 18 q -64 37 -64 66 q -64 82 -58 100 l 80 479 q 88 500 108 514 q 128 529 149 529 l 235 529 q 267 529 286 510 q 305 492 305 463 q 305 447 298 429 l 171 80 l 235 80 l 362 429 q 377 470 417 500 q 457 529 499 529 l 585 529 q 620 529 620 496 q 620 488 616 479 z"},"o":{"x_min":0,"x_max":570,"ha":570,"o":"m 595 429 l 475 100 q 460 59 420 30 q 380 0 339 0 l 3 0 q -29 0 -48 18 q -67 37 -67 66 q -67 82 -61 100 l 59 429 q 74 470 114 500 q 154 529 196 529 l 532 529 q 564 529 583 510 q 602 492 602 463 q 602 447 595 429 z m 366 449 l 302 449 l 168 80 l 232 80 z"},"N":{"x_min":0,"x_max":581,"ha":581,"o":"m 604 429 l 466 50 q 459 29 439 14 q 419 0 398 0 l 312 0 q 280 0 261 18 q 242 37 242 66 q 242 82 248 100 l 375 449 l 311 449 l 184 100 q 169 59 129 30 q 89 0 48 0 l -38 0 q -73 0 -73 33 q -73 41 -70 50 l 68 429 q 83 470 123 500 q 163 529 205 529 l 541 529 q 573 529 592 510 q 611 492 611 463 q 611 447 604 429 z"},"+":{"x_min":0,"x_max":390,"ha":390,"o":"m 367 279 l 356 250 q 349 229 329 214 q 309 200 288 200 l 237 200 l 219 150 q 212 129 192 114 q 172 100 151 100 l 122 100 q 87 100 87 133 q 87 141 90 150 l 108 200 l 52 200 q 17 200 17 233 q 17 241 20 250 l 31 279 q 38 300 58 314 q 78 329 99 329 l 155 329 l 176 386 q 183 407 203 422 q 223 436 244 436 l 273 436 q 308 436 308 403 q 308 395 305 386 l 284 329 l 335 329 q 370 329 370 296 q 370 288 367 279 z"},"G":{"x_min":0,"x_max":573,"ha":573,"o":"m 600 429 l 579 370 q 571 349 551 334 q 531 320 511 320 l 425 320 q 393 320 374 338 q 354 357 354 386 q 354 402 361 420 l 371 449 l 307 449 l 173 80 l 237 80 l 277 189 q 282 204 292 218 l 243 218 l 269 289 l 499 289 q 534 289 534 256 q 534 248 531 239 l 480 100 q 465 59 425 30 q 385 0 344 0 l 8 0 q -24 0 -43 18 q -62 37 -62 66 q -62 82 -56 100 l 64 429 q 79 470 119 500 q 159 529 201 529 l 537 529 q 569 529 588 510 q 607 492 607 463 q 607 447 600 429 z"},"q":{"x_min":0,"x_max":559,"ha":559,"o":"m 598 429 l 387 -150 q 380 -171 360 -186 q 340 -200 319 -200 l 183 -200 q 148 -200 148 -167 q 148 -159 151 -150 l 206 0 l 6 0 q -26 0 -45 18 q -64 37 -64 66 q -64 82 -58 100 l 62 429 q 77 470 117 500 q 157 529 199 529 l 535 529 q 567 529 586 510 q 605 492 605 463 q 605 447 598 429 z m 369 449 l 305 449 l 171 80 l 235 80 z"},"d":{"x_min":0,"x_max":599,"ha":599,"o":"m 664 579 l 490 100 q 475 59 435 30 q 395 0 353 0 l 17 0 q -15 0 -34 18 q -53 37 -53 66 q -53 82 -46 100 l 73 429 q 88 470 128 500 q 168 529 210 529 l 410 529 l 428 579 q 436 600 456 614 q 475 629 496 629 l 632 629 q 667 629 667 596 q 667 588 664 579 z m 381 449 l 317 449 l 182 80 l 246 80 z"},"1":{"x_min":0,"x_max":303,"ha":303,"o":"m 347 479 l 192 50 q 185 29 165 14 q 145 0 124 0 l -12 0 q -47 0 -47 33 q -47 41 -44 50 l 111 479 q 119 500 139 514 q 159 529 179 529 l 315 529 q 350 529 350 496 q 350 488 347 479 z"},"5":{"x_min":0,"x_max":582,"ha":582,"o":"m 655 529 l 630 460 l 329 458 l 280 321 l 530 321 q 565 321 565 288 q 565 280 562 271 l 482 50 q 474 29 454 14 q 434 0 414 0 l -22 0 q -57 0 -57 33 q -57 41 -54 50 l -8 179 q 0 200 20 214 q 40 229 60 229 l 196 229 q 231 229 232 196 q 232 188 228 179 l 189 71 l 253 71 l 318 250 l 18 250 l 119 529 z"}}}
